<svg width="20" height="18" viewBox="0 0 20 18" fill="none" xmlns="http://www.w3.org/2000/svg">
<path fill-rule="evenodd" clip-rule="evenodd" d="M20.0022 8.99999C20.0022 9.33151 19.8705 9.64946 19.6361 9.88388C19.4017 10.1183 19.0838 10.25 18.7522 10.25H4.26973L9.63723 15.615C9.75345 15.7312 9.84565 15.8692 9.90854 16.021C9.97144 16.1729 10.0038 16.3356 10.0038 16.5C10.0038 16.6644 9.97144 16.8271 9.90854 16.979C9.84565 17.1308 9.75345 17.2688 9.63723 17.385C9.52102 17.5012 9.38304 17.5934 9.23119 17.6563C9.07934 17.7192 8.91659 17.7516 8.75223 17.7516C8.58787 17.7516 8.42512 17.7192 8.27328 17.6563C8.12143 17.5934 7.98345 17.5012 7.86723 17.385L0.367234 9.88499C0.250826 9.76888 0.158469 9.63094 0.0954527 9.47908C0.0324365 9.32721 0 9.16441 0 8.99999C0 8.83557 0.0324365 8.67277 0.0954527 8.52091C0.158469 8.36905 0.250826 8.23111 0.367234 8.11499L7.86723 0.614992C8.10195 0.380276 8.42029 0.248413 8.75223 0.248413C9.08417 0.248413 9.40252 0.380276 9.63723 0.614992C9.87195 0.849709 10.0038 1.16805 10.0038 1.49999C10.0038 1.83193 9.87195 2.15028 9.63723 2.38499L4.26973 7.74999H18.7522C19.0838 7.74999 19.4017 7.88169 19.6361 8.11611C19.8705 8.35053 20.0022 8.66847 20.0022 8.99999Z" fill="#5B5E77" fill-opacity="0.7"/>
</svg>
