<svg width="72" height="72" viewBox="0 0 72 72" fill="none" xmlns="http://www.w3.org/2000/svg">
<g clip-path="url(#clip0_1877_497)">
<path d="M36 71.9998C55.8822 71.9998 72 55.882 72 35.9998C72 16.1175 55.8822 -0.000244141 36 -0.000244141C16.1177 -0.000244141 0 16.1175 0 35.9998C0 55.882 16.1177 71.9998 36 71.9998Z" fill="#E5EDFA"/>
<path d="M57.5999 72.0003H14.3999V25.4403C16.436 25.438 18.3881 24.6281 19.8279 23.1883C21.2677 21.7485 22.0776 19.7964 22.0799 17.7603H49.9199C49.9177 18.7689 50.1156 19.768 50.5021 20.6997C50.8886 21.6313 51.456 22.4771 52.1716 23.1881C52.8825 23.9038 53.7283 24.4714 54.6601 24.858C55.5919 25.2446 56.5911 25.4425 57.5999 25.4403V72.0003Z" fill="white"/>
<path d="M35.9999 48.9567C42.3622 48.9567 47.5199 43.7991 47.5199 37.4367C47.5199 31.0744 42.3622 25.9167 35.9999 25.9167C29.6376 25.9167 24.4799 31.0744 24.4799 37.4367C24.4799 43.7991 29.6376 48.9567 35.9999 48.9567Z" fill="#FAA61A" fill-opacity="0.5"/>
<path d="M35.5989 42.1807C36.8403 42.1805 38.0459 41.7652 39.0239 41.0007L42.0989 44.0757L43.0879 43.0867L40.0119 40.0107C40.7847 39.0115 41.1964 37.7801 41.1797 36.517C41.163 35.2539 40.719 34.0337 39.9201 33.0553C39.1212 32.0768 38.0144 31.3978 36.7802 31.1289C35.546 30.86 34.2571 31.017 33.1235 31.5744C31.9899 32.1318 31.0786 33.0567 30.538 34.1984C29.9974 35.34 29.8594 36.6311 30.1465 37.8612C30.4336 39.0914 31.1288 40.188 32.119 40.9724C33.1091 41.7568 34.3357 42.1827 35.5989 42.1807ZM35.5989 32.3867C36.4296 32.3867 37.2416 32.6331 37.9323 33.0946C38.623 33.5561 39.1613 34.212 39.4792 34.9795C39.7971 35.7469 39.8803 36.5914 39.7182 37.4061C39.5562 38.2208 39.1561 38.9692 38.5688 39.5566C37.9814 40.144 37.233 40.544 36.4183 40.706C35.6036 40.8681 34.7591 40.7849 33.9916 40.467C33.2242 40.1491 32.5682 39.6108 32.1067 38.9201C31.6452 38.2294 31.3989 37.4174 31.3989 36.5867C31.3989 35.4728 31.8414 34.4045 32.6291 33.6169C33.4167 32.8292 34.485 32.3867 35.5989 32.3867Z" fill="white"/>
<path d="M42.2397 51.8401H29.7597C28.9644 51.8401 28.3197 52.4848 28.3197 53.2801C28.3197 54.0754 28.9644 54.7201 29.7597 54.7201H42.2397C43.0349 54.7201 43.6797 54.0754 43.6797 53.2801C43.6797 52.4848 43.0349 51.8401 42.2397 51.8401Z" fill="#E5EDFA"/>
<path d="M46.5598 57.5994H25.4398C24.6445 57.5994 23.9998 58.2441 23.9998 59.0394C23.9998 59.8347 24.6445 60.4794 25.4398 60.4794H46.5598C47.3551 60.4794 47.9998 59.8347 47.9998 59.0394C47.9998 58.2441 47.3551 57.5994 46.5598 57.5994Z" fill="#E5EDFA"/>
</g>
<defs>
<clipPath id="clip0_1877_497">
<rect width="72" height="72" fill="white"/>
</clipPath>
</defs>
</svg>
