<svg width="22" height="22" viewBox="0 0 22 22" fill="none" xmlns="http://www.w3.org/2000/svg">
<g id="&#240;&#159;&#166;&#134; icon &#34;close circle&#34;">
<path id="Vector" d="M10.8638 0C4.87787 0 0 4.87787 0 10.8638C0 16.8498 4.87787 21.7277 10.8638 21.7277C16.8498 21.7277 21.7277 16.8498 21.7277 10.8638C21.7277 4.87787 16.8498 0 10.8638 0ZM14.5141 13.3625C14.8292 13.6776 14.8292 14.199 14.5141 14.5141C14.3511 14.6771 14.1447 14.7531 13.9383 14.7531C13.7319 14.7531 13.5255 14.6771 13.3625 14.5141L10.8638 12.0154L8.36516 14.5141C8.2022 14.6771 7.99579 14.7531 7.78938 14.7531C7.58296 14.7531 7.37655 14.6771 7.21359 14.5141C6.89854 14.199 6.89854 13.6776 7.21359 13.3625L9.71228 10.8638L7.21359 8.36516C6.89854 8.05011 6.89854 7.52865 7.21359 7.21359C7.52865 6.89854 8.05011 6.89854 8.36516 7.21359L10.8638 9.71228L13.3625 7.21359C13.6776 6.89854 14.199 6.89854 14.5141 7.21359C14.8292 7.52865 14.8292 8.05011 14.5141 8.36516L12.0154 10.8638L14.5141 13.3625Z" fill="#FAA61A" fill-opacity="0.5"/>
</g>
</svg>
