<svg width="72" height="72" viewBox="0 0 72 72" fill="none" xmlns="http://www.w3.org/2000/svg">
<g clip-path="url(#clip0_2110_1386)">
<path d="M36 72C55.8822 72 72 55.8822 72 36C72 16.1177 55.8822 0 36 0C16.1177 0 0 16.1177 0 36C0 55.8822 16.1177 72 36 72Z" fill="#E5EDFA"/>
<path d="M57.6004 72.0007H14.4004V25.4407C16.4366 25.4384 18.3887 24.6285 19.8284 23.1887C21.2682 21.7489 22.0781 19.7968 22.0804 17.7607H49.9204C49.9182 18.7693 50.1161 19.7684 50.5026 20.7001C50.8891 21.6317 51.4566 22.4775 52.1721 23.1885C52.883 23.9042 53.7288 24.4718 54.6606 24.8584C55.5924 25.245 56.5916 25.4429 57.6004 25.4407V72.0007Z" fill="white"/>
<path d="M36.0005 48.957C42.3628 48.957 47.5205 43.7994 47.5205 37.437C47.5205 31.0747 42.3628 25.917 36.0005 25.917C29.6381 25.917 24.4805 31.0747 24.4805 37.437C24.4805 43.7994 29.6381 48.957 36.0005 48.957Z" fill="#DC5233"/>
<mask id="mask0_2110_1386" style="mask-type:alpha" maskUnits="userSpaceOnUse" x="24" y="26" width="24" height="25">
<path d="M48 26.1797H24V50.1797H48V26.1797Z" fill="#D9D9D9"/>
</mask>
<g mask="url(#mask0_2110_1386)">
<path d="M26.5897 38.4912L26.5788 38.386C26.5376 37.9886 26.5565 37.6171 26.6355 37.2714C26.7141 36.9223 26.8491 36.613 27.0406 36.3434C27.232 36.0738 27.4793 35.8541 27.7824 35.6844C28.0851 35.5113 28.4418 35.4034 28.8525 35.3609C29.2633 35.3184 29.6362 35.3506 29.9713 35.4577C30.3061 35.5614 30.5948 35.7256 30.8374 35.9502C31.0834 36.1745 31.2807 36.4494 31.4291 36.7749C31.5773 37.0971 31.6719 37.4569 31.713 37.8542L31.7239 37.9594C31.7647 38.3535 31.7458 38.725 31.6672 39.0741C31.5883 39.4198 31.4516 39.7292 31.2571 40.0025C31.0657 40.2721 30.8184 40.4918 30.5153 40.6616C30.2123 40.8313 29.8554 40.9375 29.4446 40.98C29.0339 41.0226 28.6611 40.992 28.3264 40.8883C27.995 40.7842 27.7062 40.62 27.4603 40.3957C27.2173 40.1678 27.0217 39.8927 26.8736 39.5705C26.7251 39.245 26.6305 38.8852 26.5897 38.4912ZM28.0214 38.2366L28.0323 38.3418C28.0558 38.5688 28.0978 38.7788 28.1583 38.9717C28.2187 39.1646 28.3002 39.3316 28.4026 39.4729C28.5079 39.6105 28.6367 39.7136 28.789 39.7822C28.9412 39.8508 29.1209 39.8744 29.3279 39.853C29.5283 39.8322 29.6959 39.7727 29.8309 39.6743C29.9658 39.576 30.0691 39.4488 30.1407 39.2929C30.212 39.1336 30.2574 38.9534 30.2771 38.7523C30.3001 38.5507 30.2998 38.3364 30.2763 38.1094L30.2654 38.0042C30.2426 37.7838 30.1995 37.579 30.136 37.3898C30.0755 37.1969 29.9924 37.03 29.8867 36.8891C29.7839 36.7445 29.6563 36.6362 29.5037 36.5642C29.3511 36.4923 29.173 36.4668 28.9693 36.4879C28.7656 36.509 28.5964 36.5704 28.4618 36.6721C28.3306 36.7735 28.2278 36.9056 28.1535 37.0686C28.0823 37.2278 28.0368 37.4081 28.0172 37.6092C27.9971 37.8071 27.9985 38.0162 28.0214 38.2366Z" fill="#E5EDFA"/>
<path d="M33.8747 35.9943L34.5439 42.456L33.1013 42.6054L32.3242 35.1018L33.6616 34.9633L33.8747 35.9943ZM37.4724 37.2468L37.4833 37.352C37.5241 37.7461 37.5152 38.1166 37.4567 38.4635C37.4014 38.8102 37.2983 39.1179 37.1473 39.3866C36.9959 39.6521 36.7955 39.8686 36.5462 40.0362C36.2999 40.2001 36.0065 40.2996 35.6659 40.3349C35.3353 40.3692 35.0412 40.3321 34.7836 40.2238C34.526 40.1155 34.3012 39.9497 34.1094 39.7266C33.9205 39.4997 33.7593 39.2312 33.626 38.921C33.4926 38.6108 33.3802 38.2748 33.2887 37.913L33.2601 37.6375C33.2728 37.2379 33.3122 36.8693 33.3785 36.5317C33.4445 36.1907 33.5468 35.8916 33.6855 35.6342C33.8272 35.3731 34.0114 35.1633 34.238 35.0049C34.4679 34.846 34.7465 34.7497 35.0738 34.7158C35.4178 34.6802 35.7267 34.714 36.0007 34.8172C36.278 34.9202 36.5177 35.0843 36.72 35.3098C36.9255 35.5349 37.0909 35.8114 37.216 36.1393C37.3444 36.4669 37.4299 36.8361 37.4724 37.2468ZM36.0357 37.502L36.0248 37.3968C36.0009 37.1664 35.9589 36.9564 35.8988 36.7668C35.8417 36.5736 35.7638 36.4079 35.6651 36.2696C35.5697 36.131 35.4511 36.0285 35.3092 35.9622C35.1703 35.8922 35.0074 35.8669 34.8204 35.8862C34.6233 35.9066 34.458 35.9558 34.3243 36.0338C34.194 36.1114 34.0916 36.2148 34.0172 36.344C33.9429 36.4733 33.8926 36.6236 33.8665 36.7951C33.8404 36.9665 33.8332 37.158 33.845 37.3694L33.9171 38.0656C33.9594 38.311 34.0291 38.5283 34.1263 38.7173C34.2232 38.9031 34.3577 39.0444 34.5297 39.1413C34.7018 39.2383 34.918 39.2732 35.1785 39.2463C35.3688 39.2266 35.5248 39.1682 35.6464 39.0712C35.7676 38.9709 35.8605 38.8415 35.9251 38.6829C35.993 38.524 36.0335 38.3443 36.0465 38.1438C36.0628 37.943 36.0592 37.729 36.0357 37.502Z" fill="#E5EDFA"/>
<path d="M41.4311 38.1236C41.4204 38.0201 41.3808 37.9297 41.312 37.8524C41.2432 37.7752 41.1234 37.71 40.9525 37.6568C40.7846 37.5999 40.5456 37.5572 40.2355 37.5285C39.9555 37.4968 39.6922 37.4481 39.4458 37.3825C39.2023 37.3132 38.9871 37.2224 38.7999 37.1102C38.6161 36.9976 38.4666 36.8578 38.3515 36.6908C38.236 36.5205 38.1663 36.3202 38.1424 36.0898C38.1189 35.8627 38.1451 35.644 38.2212 35.4336C38.3006 35.2228 38.4243 35.0311 38.592 34.8585C38.7628 34.6822 38.9772 34.5368 39.2354 34.4223C39.4966 34.3041 39.7958 34.2276 40.133 34.1926C40.6039 34.1439 41.0157 34.1772 41.3686 34.2925C41.7248 34.4075 42.0066 34.5876 42.2142 34.8327C42.4249 35.0741 42.5476 35.3618 42.5822 35.6958L41.1396 35.8452C41.125 35.7049 41.082 35.5828 41.0105 35.4788C40.942 35.3712 40.8426 35.292 40.7125 35.2414C40.5854 35.187 40.425 35.1699 40.2313 35.19C40.071 35.2066 39.9353 35.2493 39.8243 35.3182C39.713 35.3837 39.6303 35.4665 39.5766 35.5666C39.5258 35.663 39.5062 35.7663 39.5176 35.8765C39.5263 35.9599 39.5508 36.0334 39.5911 36.0967C39.6344 36.1563 39.6989 36.2087 39.7846 36.2538C39.8702 36.299 39.9789 36.3383 40.1107 36.3719C40.2454 36.4019 40.4098 36.4253 40.604 36.4424C41.003 36.482 41.3629 36.5511 41.6836 36.6495C42.0039 36.7446 42.2657 36.893 42.4688 37.0947C42.6717 37.2931 42.7914 37.5693 42.828 37.9233C42.8529 38.1637 42.8222 38.3896 42.7361 38.601C42.65 38.8125 42.5147 39.0037 42.3299 39.1747C42.1446 39.3424 41.9162 39.4825 41.6444 39.5951C41.3755 39.7039 41.0674 39.7763 40.7201 39.8123C40.2159 39.8645 39.7791 39.8186 39.4098 39.6746C39.0438 39.5302 38.7562 39.3288 38.5472 39.0703C38.3411 38.8081 38.223 38.5301 38.1926 38.2363L39.56 38.0946C39.5871 38.291 39.6536 38.4444 39.7596 38.5549C39.8689 38.6651 39.9998 38.7393 40.1522 38.7775C40.308 38.8154 40.4728 38.8253 40.6464 38.8074C40.8334 38.788 40.9861 38.7469 41.1045 38.684C41.2225 38.6177 41.3087 38.5379 41.3632 38.4445C41.4206 38.3475 41.4432 38.2405 41.4311 38.1236Z" fill="#E5EDFA"/>
<path d="M44.7981 31.917L45.1572 36.9982L43.9551 37.1227L43.2603 32.0762L44.7981 31.917ZM43.9071 38.7124C43.8849 38.4986 43.9401 38.3141 44.0725 38.1586C44.2079 37.9994 44.3975 37.9072 44.6412 37.882C44.8884 37.8564 45.0928 37.9078 45.2546 38.0362C45.4161 38.1612 45.5079 38.3306 45.53 38.5443C45.5514 38.7513 45.4961 38.9343 45.3641 39.0931C45.232 39.2519 45.0424 39.3441 44.7953 39.3697C44.5515 39.3949 44.3471 39.3435 44.1819 39.2155C44.0201 39.0871 43.9285 38.9194 43.9071 38.7124Z" fill="#E5EDFA"/>
</g>
<path d="M42.2403 51.8398H29.7603C28.965 51.8398 28.3203 52.4845 28.3203 53.2798C28.3203 54.0751 28.965 54.7198 29.7603 54.7198H42.2403C43.0356 54.7198 43.6803 54.0751 43.6803 53.2798C43.6803 52.4845 43.0356 51.8398 42.2403 51.8398Z" fill="#E5EDFA"/>
<path d="M46.56 57.5996H25.44C24.6447 57.5996 24 58.2443 24 59.0396C24 59.8349 24.6447 60.4796 25.44 60.4796H46.56C47.3553 60.4796 48 59.8349 48 59.0396C48 58.2443 47.3553 57.5996 46.56 57.5996Z" fill="#E5EDFA"/>
</g>
<defs>
<clipPath id="clip0_2110_1386">
<rect width="72" height="72" fill="white"/>
</clipPath>
</defs>
</svg>
