<svg width="18" height="20" viewBox="0 0 18 20" fill="none" xmlns="http://www.w3.org/2000/svg">
<path d="M17.6 14.1325L15.6504 10.5333V6.78571C15.6504 3.04406 12.6064 0 8.86472 0C5.12307 0 2.079 3.04406 2.079 6.78571V10.5333L0.129359 14.1325C0.0409449 14.2957 -0.00355444 14.4791 0.000221802 14.6647C0.00399805 14.8502 0.0559203 15.0316 0.150901 15.1911C0.245881 15.3506 0.380662 15.4827 0.542036 15.5744C0.703411 15.6661 0.885843 15.7143 1.07146 15.7143H4.95249C4.94186 15.832 4.9361 15.9509 4.9361 16.0714C4.9361 17.1133 5.35 18.1126 6.08675 18.8493C6.8235 19.5861 7.82275 20 8.86467 20C9.9066 20 10.9058 19.5861 11.6426 18.8493C12.3793 18.1126 12.7932 17.1133 12.7932 16.0714C12.7932 15.9509 12.7875 15.832 12.7769 15.7143H16.6579C16.8435 15.7143 17.0259 15.666 17.1872 15.5743C17.3486 15.4826 17.4834 15.3505 17.5783 15.1911C17.6733 15.0316 17.7252 14.8502 17.729 14.6647C17.7327 14.4791 17.6882 14.2957 17.5999 14.1325H17.6ZM11.3647 16.0714C11.365 16.415 11.2945 16.7549 11.1575 17.07C11.0206 17.3851 10.8201 17.6686 10.5688 17.9027C10.3174 18.1369 10.0204 18.3168 9.69642 18.4311C9.37243 18.5454 9.02835 18.5917 8.68568 18.567C8.343 18.5424 8.00907 18.4475 7.70473 18.2881C7.40039 18.1287 7.13217 17.9082 6.91682 17.6405C6.70147 17.3728 6.5436 17.0636 6.45307 16.7322C6.36254 16.4008 6.34129 16.0543 6.39065 15.7143H11.3387C11.3559 15.8326 11.3646 15.9519 11.3647 16.0714ZM1.67106 14.2857L3.50757 10.8953V6.78571C3.50757 5.36491 4.07199 4.0023 5.07665 2.99764C6.0813 1.99298 7.44391 1.42857 8.86472 1.42857C10.2855 1.42857 11.6481 1.99298 12.6528 2.99764C13.6574 4.0023 14.2219 5.36491 14.2219 6.78571V10.8953L16.0583 14.2857H1.67106Z" fill="#FAA61A"/>
</svg>
