<svg width="75" height="22" viewBox="0 0 75 22" fill="none" xmlns="http://www.w3.org/2000/svg">
<path d="M11 17.5C14.5899 17.5 17.5 14.5899 17.5 11C17.5 7.41015 14.5899 4.5 11 4.5C7.41015 4.5 4.5 7.41015 4.5 11C4.5 14.5899 7.41015 17.5 11 17.5Z" stroke="#FAA61A" stroke-width="2" stroke-linecap="round" stroke-linejoin="round"/>
<path d="M18.14 18.14L18.01 18.01M18.01 3.99L18.14 3.86M3.86 18.14L3.99 18.01M11 1.08V1M11 21V20.92M1.08 11H1M21 11H20.92M3.99 3.99L3.86 3.86" stroke="#FAA61A" stroke-width="2" stroke-linecap="round" stroke-linejoin="round"/>
<rect x="25" y="1" width="50" height="20" rx="10" fill="#FAAE42" fill-opacity="0.2"/>
<circle cx="40" cy="11" r="5" fill="#FAAE42"/>
</svg>
