<svg width="30" height="30" viewBox="0 0 30 30" fill="none" xmlns="http://www.w3.org/2000/svg">
<path d="M27.8974 18.7733L23.8775 16.1432L25.4253 13.3057C25.7986 12.5972 25.9942 11.8086 25.9952 11.0078V6.50962C25.9983 5.24483 25.632 4.00667 24.9412 2.94716C24.2504 1.88766 23.2653 1.05295 22.1068 0.54552C20.9482 0.0380912 19.6667 -0.119961 18.4196 0.0907706C17.1725 0.301502 16.0141 0.871845 15.0866 1.73176L16.4453 3.19847C17.0879 2.60426 17.89 2.21049 18.7532 2.06544C19.6164 1.92039 20.5031 2.03036 21.3047 2.38188C22.1063 2.73339 22.7879 3.31117 23.266 4.04437C23.744 4.77758 23.9977 5.63434 23.996 6.50962V11.0078C23.9958 11.4741 23.8841 11.9336 23.6702 12.348L21.2389 16.8054L26.8028 20.446C27.1701 20.6864 27.4714 21.0147 27.6795 21.4012C27.8876 21.7877 27.9959 22.22 27.9944 22.6589V26.0016H23.4962V28.0008H29.9935V22.6589C29.9956 21.8879 29.8049 21.1286 29.4388 20.45C29.0727 19.7714 28.5429 19.1951 27.8974 18.7733Z" fill="#5B5E77" fill-opacity="0.7"/>
<path d="M18.9011 20.7733L14.8813 18.1432L16.429 15.3057C16.8023 14.5972 16.9978 13.8086 16.9989 13.0078V8.50962C16.9976 6.78547 16.3124 5.13223 15.0937 3.9126C13.8751 2.69296 12.2224 2.00654 10.4982 2.00391C6.91736 2.00391 4.00417 4.9224 4.00417 8.50962V13.0078C4.00036 13.8082 4.19379 14.5973 4.56738 15.3053L6.12349 18.1581L2.12707 20.7733C1.48234 21.1944 0.952956 21.7698 0.586962 22.4473C0.220968 23.1248 0.0299485 23.883 0.0312372 24.653L0 30.0008H20.9972V24.6589C20.9992 23.8879 20.8085 23.1286 20.4425 22.45C20.0764 21.7714 19.5465 21.1951 18.9011 20.7733ZM18.998 28.0016H2.0108L2.03017 24.6589C2.02866 24.2199 2.13687 23.7876 2.34497 23.4011C2.55307 23.0147 2.85446 22.6863 3.22174 22.446L8.7621 18.8206L6.32241 14.348C6.11091 13.933 6.00153 13.4735 6.00336 13.0078V8.50962C6.00336 7.31663 6.47727 6.17251 7.32083 5.32894C8.1644 4.48537 9.30853 4.01146 10.5015 4.01146C11.6945 4.01146 12.8386 4.48537 13.6822 5.32894C14.5258 6.17251 14.9997 7.31663 14.9997 8.50962V13.0078C14.9995 13.4741 14.8878 13.9336 14.6739 14.348L12.2426 18.8054L17.8065 22.446C18.1737 22.6864 18.4751 23.0147 18.6832 23.4012C18.8913 23.7877 18.9995 24.22 18.998 24.6589V28.0016Z" fill="#5B5E77" fill-opacity="0.7"/>
</svg>
