<svg width="21" height="22" viewBox="0 0 21 22" fill="none" xmlns="http://www.w3.org/2000/svg">
<path d="M19.5896 8.57944L10.701 0.401875C10.412 0.136028 10.0315 -0.00784434 9.63891 0.000330204C9.24635 0.00850475 8.87214 0.168093 8.5945 0.445739L0.419529 8.62075L0 9.04024V21.0919H7.87763V13.5723H12.1745V21.0919H20.0522V9.00501L19.5896 8.57944ZM9.6697 1.43232C9.68233 1.43232 9.67454 1.43505 9.66912 1.44038C9.66353 1.43505 9.65708 1.43232 9.6697 1.43232ZM18.6199 19.6596H13.6068V13.5723C13.6068 13.1925 13.4559 12.8282 13.1873 12.5596C12.9187 12.2909 12.5544 12.14 12.1745 12.14H7.87763C7.49776 12.14 7.13345 12.2909 6.86485 12.5596C6.59624 12.8282 6.44534 13.1925 6.44534 13.5723V19.6596H1.4323V9.63352L9.6697 1.45851C9.67029 1.45797 9.67033 1.45748 9.67078 1.45694L18.6199 9.63352V19.6596Z" fill="#5B5E77" fill-opacity="0.7"/>
</svg>
