<svg width="20" height="20" viewBox="0 0 20 20" fill="none" xmlns="http://www.w3.org/2000/svg">
<path d="M18.967 3.99265H14.6615V0H5.32882V3.99265H1.033C0.759131 3.993 0.496583 4.10196 0.302934 4.29561C0.109284 4.48927 0.000342106 4.75182 0 5.02569V18.9572C0.00035314 19.231 0.1093 19.4936 0.302948 19.6872C0.496597 19.8809 0.759139 19.9898 1.033 19.9902H18.967C19.2409 19.9898 19.5034 19.8809 19.6971 19.6872C19.8907 19.4936 19.9996 19.231 20 18.9572V5.02569C19.9997 4.75182 19.8907 4.48927 19.6971 4.29561C19.5034 4.10196 19.2409 3.993 18.967 3.99265ZM6.66344 1.33462H13.3269V3.99265H6.66344V1.33462ZM18.6013 5.39142V8.73991L16.3835 10.9577H10.6993V9.00871H9.30066V10.9577H3.61654L1.39869 8.73991V5.39142H18.6013ZM1.39869 18.5915V10.7179L3.03719 12.3565H9.30066V14.3263H10.6993V12.3565H16.9628L18.6013 10.7179V18.5915H1.39869Z" fill="#5B5E77" fill-opacity="0.7"/>
</svg>
