<svg width="20" height="20" viewBox="0 0 20 20" fill="none" xmlns="http://www.w3.org/2000/svg">
<path d="M18.967 3.99462H14.6615V0H5.32882V3.99462H1.033C0.759131 3.99497 0.496583 4.10398 0.302934 4.29773C0.109284 4.49148 0.000342106 4.75416 0 5.02817V18.9665C0.00035314 19.2405 0.1093 19.5032 0.302948 19.6969C0.496597 19.8906 0.759139 19.9996 1.033 20H18.967C19.2409 19.9996 19.5034 19.8906 19.6971 19.6969C19.8907 19.5032 19.9996 19.2405 20 18.9665V5.02817C19.9997 4.75416 19.8907 4.49148 19.6971 4.29773C19.5034 4.10398 19.2409 3.99497 18.967 3.99462ZM6.66344 1.33528H13.3269V3.99462H6.66344V1.33528ZM18.6013 5.39407V8.74421L16.3835 10.9631H10.6993V9.01314H9.30066V10.9631H3.61654L1.39869 8.74421V5.39407H18.6013ZM1.39869 18.6006V10.7232L3.03719 12.3626H9.30066V14.3334H10.6993V12.3626H16.9628L18.6013 10.7232V18.6006H1.39869Z" fill="#5B5E77" fill-opacity="0.7"/>
</svg>
