<svg width="20" height="20" viewBox="0 0 20 20" fill="none" xmlns="http://www.w3.org/2000/svg">
<path d="M14.5124 15.5535H4.618C1.07664 15.5535 0 14.4279 0 10.7256V4.82791C0 1.12558 1.07664 0 4.618 0H14.5035C18.0449 0 19.1215 1.12558 19.1215 4.82791V10.7163C19.1304 14.4279 18.0538 15.5535 14.5124 15.5535ZM4.618 1.39535C1.82406 1.39535 1.33468 1.90698 1.33468 4.82791V10.7163C1.33468 13.6372 1.82406 14.1488 4.618 14.1488H14.5035C17.2975 14.1488 17.7869 13.6372 17.7869 10.7163V4.82791C17.7869 1.90698 17.2975 1.39535 14.5035 1.39535H4.618Z" fill="#5B5E77" fill-opacity="0.7"/>
<path d="M9.56529 20.0001C9.20048 20.0001 8.89795 19.6838 8.89795 19.3024V14.8559C8.89795 14.4745 9.20048 14.1582 9.56529 14.1582C9.9301 14.1582 10.2326 14.4745 10.2326 14.8559V19.3024C10.2326 19.6838 9.9301 20.0001 9.56529 20.0001Z" fill="#5B5E77" fill-opacity="0.7"/>
<path d="M18.4631 11.628H0.667341C0.302528 11.628 0 11.3117 0 10.9303C0 10.5489 0.302528 10.2327 0.667341 10.2327H18.4631C18.8279 10.2327 19.1304 10.5489 19.1304 10.9303C19.1304 11.3117 18.8279 11.628 18.4631 11.628Z" fill="#5B5E77" fill-opacity="0.7"/>
<path d="M13.5692 20.0001H5.56114C5.19633 20.0001 4.8938 19.6838 4.8938 19.3024C4.8938 18.921 5.19633 18.6047 5.56114 18.6047H13.5692C13.934 18.6047 14.2366 18.921 14.2366 19.3024C14.2366 19.6838 13.934 20.0001 13.5692 20.0001Z" fill="#5B5E77" fill-opacity="0.7"/>
</svg>
