<svg width="20" height="20" viewBox="0 0 20 20" fill="none" xmlns="http://www.w3.org/2000/svg">
<path d="M17.7951 18.4931C17.609 18.4931 17.4323 18.4187 17.302 18.2885L11.3671 12.3536C11.0974 12.0838 11.0974 11.6373 11.3671 11.3675L18.5579 4.1768C18.7346 4.00006 19.0044 3.93494 19.2462 4.00006C19.4881 4.07448 19.674 4.26983 19.7299 4.51169C19.9066 5.30239 19.9997 6.18612 19.9997 7.20938V12.7908C19.9997 15.3675 19.4602 17.1071 18.2881 18.2885C18.1579 18.4187 17.9625 18.4466 17.7951 18.4931ZM12.8461 11.8605L17.7392 16.7536C18.3253 15.8513 18.6044 14.5675 18.6044 12.7908V7.20938C18.6044 6.82798 18.595 6.47449 18.5671 6.1396L12.8461 11.8605Z" fill="#5B5E77" fill-opacity="0.7"/>
<path d="M4.66978 19.7489C4.61397 19.7489 4.56747 19.7396 4.51166 19.7303C1.43257 19.0233 0 16.8187 0 12.7908V7.20933C0 2.15815 2.15815 0 7.20934 0H12.7908C16.8187 0 19.0233 1.43257 19.7303 4.51166C19.7861 4.74422 19.7117 4.99537 19.5443 5.16281L5.16281 19.5443C5.03257 19.6745 4.85583 19.7489 4.66978 19.7489ZM7.20934 1.39536C2.92094 1.39536 1.39536 2.92094 1.39536 7.20933V12.7908C1.39536 16.0187 2.28839 17.6373 4.45584 18.2792L18.2699 4.46514C17.6373 2.29769 16.0094 1.40465 12.7815 1.40465H7.20934V1.39536Z" fill="#5B5E77" fill-opacity="0.7"/>
<path d="M12.7911 20H7.20969C6.18643 20 5.31201 19.9162 4.51201 19.7302C4.26084 19.6744 4.06548 19.4883 4.00036 19.2465C3.92594 19.0046 4.00036 18.7441 4.1771 18.5581L11.3679 11.3674C11.6376 11.0976 12.0842 11.0976 12.3539 11.3674L18.2888 17.3023C18.4191 17.4325 18.4935 17.6093 18.4935 17.7953C18.4935 17.9813 18.4191 18.1581 18.2888 18.2883C17.1074 19.4604 15.3679 20 12.7911 20ZM6.13992 18.5674C6.47481 18.5953 6.82829 18.6046 7.20969 18.6046H12.7911C14.5772 18.6046 15.8516 18.3255 16.7539 17.7395L11.8609 12.8464L6.13992 18.5674Z" fill="#5B5E77" fill-opacity="0.7"/>
<path d="M7.31988 11.2187C6.73383 11.2187 6.14777 11.0047 5.68266 10.5675C4.20358 9.16283 3.60826 7.61869 3.96175 6.1117C4.31524 4.56751 5.66406 3.52563 7.31988 3.52563C8.97574 3.52563 10.3246 4.56751 10.6781 6.1117C11.0223 7.62799 10.4269 9.16283 8.94783 10.5675C8.49202 10.9954 7.90593 11.2187 7.31988 11.2187ZM5.31988 6.41867C5.02221 7.68379 5.87802 8.81874 6.65011 9.55362C7.03151 9.91632 7.61757 9.91632 7.98966 9.55362C8.75248 8.82804 9.6083 7.6931 9.31993 6.41867C9.06876 5.31169 8.08268 4.91169 7.31988 4.91169C6.55709 4.91169 5.58035 5.31169 5.31988 6.41867Z" fill="#5B5E77" fill-opacity="0.7"/>
<path d="M7.34918 7.6654C6.83755 7.6654 6.41895 7.2468 6.41895 6.73517C6.41895 6.22354 6.82825 5.80493 7.34918 5.80493H7.35849C7.87012 5.80493 8.28873 6.22354 8.28873 6.73517C8.28873 7.2468 7.86081 7.6654 7.34918 7.6654Z" fill="#5B5E77" fill-opacity="0.7"/>
</svg>
