<svg width="20" height="16" viewBox="0 0 20 16" fill="none" xmlns="http://www.w3.org/2000/svg">
<path d="M0.0625 2.44375C0.188523 1.89155 0.498319 1.39852 0.941152 1.04539C1.38398 0.692255 1.93361 0.499962 2.5 0.5H17.5C18.0664 0.499962 18.616 0.692255 19.0588 1.04539C19.5017 1.39852 19.8115 1.89155 19.9375 2.44375L10 8.5175L0.0625 2.44375ZM0 3.87125V12.7512L7.25375 8.30375L0 3.87125ZM8.45125 9.0375L0.23875 14.0713C0.441658 14.4991 0.761908 14.8605 1.16223 15.1135C1.56255 15.3664 2.02647 15.5005 2.5 15.5H17.5C17.9735 15.5001 18.4372 15.3658 18.8373 15.1126C19.2374 14.8595 19.5574 14.4979 19.76 14.07L11.5475 9.03625L10 9.9825L8.45125 9.0375ZM12.7462 8.305L20 12.7512V3.87125L12.7462 8.30375V8.305Z" fill="#5B5E77" fill-opacity="0.7"/>
</svg>
