<svg width="100" height="69" viewBox="0 0 100 69" fill="none" xmlns="http://www.w3.org/2000/svg">
<path d="M65.625 34C65.625 38.144 63.9788 42.1183 61.0485 45.0485C58.1183 47.9788 54.144 49.625 50 49.625C45.856 49.625 41.8817 47.9788 38.9515 45.0485C36.0212 42.1183 34.375 38.144 34.375 34C34.375 29.856 36.0212 25.8817 38.9515 22.9515C41.8817 20.0212 45.856 18.375 50 18.375C54.144 18.375 58.1183 20.0212 61.0485 22.9515C63.9788 25.8817 65.625 29.856 65.625 34Z" fill="#5B5E77" fill-opacity="0.7"/>
<path d="M0 34.375C0 34.375 18.75 0 50 0C81.25 0 100 34.375 100 34.375C100 34.375 81.25 68.75 50 68.75C18.75 68.75 0 34.375 0 34.375ZM50 56.25C55.8016 56.25 61.3656 53.9453 65.468 49.843C69.5703 45.7406 71.875 40.1766 71.875 34.375C71.875 28.5734 69.5703 23.0094 65.468 18.907C61.3656 14.8047 55.8016 12.5 50 12.5C44.1984 12.5 38.6344 14.8047 34.532 18.907C30.4297 23.0094 28.125 28.5734 28.125 34.375C28.125 40.1766 30.4297 45.7406 34.532 49.843C38.6344 53.9453 44.1984 56.25 50 56.25Z" fill="#5B5E77" fill-opacity="0.7"/>
</svg>
