<svg width="20" height="16" viewBox="0 0 20 16" fill="none" xmlns="http://www.w3.org/2000/svg">
<path d="M3 0V13.1667C3 13.3877 2.9122 13.5996 2.75592 13.7559C2.59964 13.9122 2.38768 14 2.16667 14C1.94565 14 1.73369 13.9122 1.57741 13.7559C1.42113 13.5996 1.33333 13.3877 1.33333 13.1667V3.33333H0V13.1667C0.000650657 13.7411 0.229133 14.2918 0.635321 14.698C1.04151 15.1042 1.59223 15.3327 2.16667 15.3333H17.8333C18.4078 15.3327 18.9585 15.1042 19.3647 14.698C19.7709 14.2918 19.9993 13.7411 20 13.1667V0H3ZM18.6667 13.1667C18.6664 13.3876 18.5785 13.5994 18.4223 13.7556C18.2661 13.9119 18.0543 13.9997 17.8333 14H4.16667C4.27698 13.736 4.33364 13.4528 4.33333 13.1667V1.33333H18.6667V13.1667Z" fill="#5B5E77" fill-opacity="0.7"/>
<path d="M11.6666 2.66675H5.66663V9.33341H11.6666V2.66675ZM10.3333 8.00008H6.99996V4.00008H10.3333V8.00008Z" fill="#5B5E77" fill-opacity="0.7"/>
<path d="M17.3333 2.66675H13V4.00008H17.3333V2.66675Z" fill="#5B5E77" fill-opacity="0.7"/>
<path d="M17.3333 5.33325H13V6.66659H17.3333V5.33325Z" fill="#5B5E77" fill-opacity="0.7"/>
<path d="M17.3333 8H13V9.33333H17.3333V8Z" fill="#5B5E77" fill-opacity="0.7"/>
</svg>
