<svg width="45" height="45" viewBox="0 0 45 45" fill="none" xmlns="http://www.w3.org/2000/svg">
<path d="M41.8461 28.16L35.8163 24.2148L38.1379 19.9586C38.6979 18.8958 38.9912 17.7129 38.9928 16.5117V9.76443C38.9974 7.86725 38.448 6.01 37.4118 4.42075C36.3757 2.83149 34.898 1.57942 33.1602 0.81828C31.4224 0.0571368 29.5001 -0.179942 27.6294 0.136156C25.7588 0.452254 24.0211 1.30777 22.6299 2.59764L24.6679 4.79771C25.6319 3.90639 26.8351 3.31574 28.1298 3.09816C29.4246 2.88058 30.7547 3.04554 31.9571 3.57282C33.1595 4.10009 34.1819 4.96676 34.899 6.06656C35.616 7.16637 35.9966 8.45151 35.994 9.76443V16.5117C35.9937 17.2111 35.8262 17.9004 35.5053 18.522L31.8584 25.2081L40.2042 30.6691C40.7551 31.0296 41.2072 31.5221 41.5193 32.1018C41.8315 32.6815 41.9938 33.33 41.9915 33.9884V39.0025H35.2443V42.0012H44.9903V33.9883C44.9933 32.8318 44.7073 31.6928 44.1582 30.675C43.6091 29.6571 42.8143 28.7926 41.8461 28.16Z" fill="white"/>
<path d="M28.3516 31.1589L22.3219 27.2137L24.6434 22.9575C25.2034 21.8947 25.4967 20.7118 25.4983 19.5106V12.7633C25.4963 10.1771 24.4686 7.69724 22.6406 5.8678C20.8126 4.03835 18.3335 3.00871 15.7473 3.00476C10.376 3.00476 6.00626 7.3825 6.00626 12.7633V19.5106C6.00054 20.7113 6.29069 21.8949 6.85107 22.9568L9.18524 27.2361L3.1906 31.1589C2.22351 31.7905 1.42943 32.6536 0.880443 33.6698C0.331453 34.6861 0.0449227 35.8234 0.0468558 36.9784L0 45.0001H31.4958V36.9872C31.4988 35.8307 31.2128 34.6917 30.6637 33.6739C30.1146 32.656 29.3198 31.7915 28.3516 31.1589ZM28.4971 42.0014H3.0162L3.04525 36.9872C3.04299 36.3288 3.20531 35.6803 3.51746 35.1006C3.82961 34.5209 4.28169 34.0284 4.83262 33.6679L13.1432 28.2299L9.48362 21.5209C9.16637 20.8984 9.0023 20.2092 9.00503 19.5106V12.7633C9.00503 10.9738 9.7159 9.25766 10.9813 7.99231C12.2466 6.72696 13.9628 6.01609 15.7523 6.01609C17.5417 6.01609 19.2579 6.72696 20.5233 7.99231C21.7886 9.25766 22.4995 10.9738 22.4995 12.7633V19.5106C22.4992 20.21 22.3317 20.8993 22.0108 21.5209L18.3639 28.207L26.7097 33.668C27.2606 34.0285 27.7127 34.521 28.0248 35.1007C28.337 35.6804 28.4993 36.3289 28.4971 36.9873V42.0014Z" fill="white"/>
</svg>
