<svg width="65" height="50" viewBox="0 0 65 50" fill="none" xmlns="http://www.w3.org/2000/svg">
<path d="M26.1161 0C24.5177 0 22.9847 0.615912 21.8545 1.71224C20.7242 2.80857 20.0893 4.29552 20.0893 5.84596V7.79461H6.02679C4.42838 7.79461 2.89545 8.41053 1.7652 9.50686C0.634963 10.6032 0 12.0901 0 13.6406L0 19.0344L30.592 26.946C31.6082 27.2085 32.6775 27.2085 33.6937 26.946L64.2857 19.0344V13.6406C64.2857 12.0901 63.6507 10.6032 62.5205 9.50686C61.3903 8.41053 59.8573 7.79461 58.2589 7.79461H44.1964V5.84596C44.1964 4.29552 43.5615 2.80857 42.4312 1.71224C41.301 0.615912 39.768 0 38.1696 0H26.1161ZM26.1161 3.89731H38.1696C38.7024 3.89731 39.2134 4.10261 39.5902 4.46805C39.9669 4.8335 40.1786 5.32915 40.1786 5.84596V7.79461H24.1071V5.84596C24.1071 5.32915 24.3188 4.8335 24.6955 4.46805C25.0723 4.10261 25.5833 3.89731 26.1161 3.89731Z" fill="white"/>
<path d="M0 44.3057C0 45.8159 0.634963 47.2643 1.7652 48.3322C2.89545 49.4001 4.42838 50 6.02679 50H58.2589C59.8573 50 61.3903 49.4001 62.5205 48.3322C63.6507 47.2643 64.2857 45.8159 64.2857 44.3057V22.8571L32.6612 30.8178C32.3216 30.9035 31.9641 30.9035 31.6246 30.8178L0 22.8571V44.3057Z" fill="white"/>
</svg>
