<svg width="106" height="94" viewBox="0 0 106 94" fill="none" xmlns="http://www.w3.org/2000/svg">
<path d="M75.9054 29.9785H58.6749V14H21.3258V29.9785H4.13403C3.03802 29.9799 1.98731 30.4159 1.21233 31.1909C0.437352 31.9659 0.0013691 33.0167 0 34.1127V89.866C0.00141326 90.962 0.437415 92.0126 1.21239 92.7876C1.98736 93.5626 3.03805 93.9986 4.13403 94H75.9054C77.0013 93.9986 78.052 93.5626 78.827 92.7876C79.602 92.0126 80.038 90.962 80.0394 89.866V34.1127C80.038 33.0167 79.602 31.9659 78.8271 31.1909C78.0521 30.4159 77.0014 29.9799 75.9054 29.9785ZM26.6669 19.3411H53.3338V29.9785H26.6669V19.3411ZM74.4419 35.5763V48.9768L65.5661 57.8525H42.8184V50.0526H37.2209V57.8525H14.4733L5.5975 48.9768V35.5763H74.4419ZM5.5975 88.4025V56.8929L12.1547 63.4503H37.2209V71.3336H42.8184V63.4503H67.8847L74.4419 56.8929V88.4025H5.5975Z" fill="#FAA61A"/>
<path d="M105.5 14.6957V14.1957H105H91.8043V1V0.5H91.3043H88.6957H88.1957V1V14.1957H75H74.5V14.6957V17.3043V17.8043H75H88.1957V31V31.5H88.6957H91.3043H91.8043V31V17.8043H105H105.5V17.3043V14.6957Z" fill="#FAA61A" stroke="#FAA61A"/>
</svg>
