<svg width="30" height="30" viewBox="0 0 30 30" fill="none" xmlns="http://www.w3.org/2000/svg">
<path d="M27.8974 18.7733L23.8775 16.1432L25.4253 13.3057C25.7986 12.5972 25.9941 11.8086 25.9951 11.0078V6.50962C25.9983 5.24483 25.6319 4.00667 24.9412 2.94716C24.2504 1.88766 23.2653 1.05295 22.1067 0.54552C20.9482 0.0380912 19.6667 -0.119961 18.4196 0.0907706C17.1725 0.301502 16.014 0.871844 15.0865 1.73176L16.4452 3.19847C17.0879 2.60426 17.89 2.21049 18.7532 2.06544C19.6164 1.92039 20.5031 2.03036 21.3047 2.38188C22.1063 2.73339 22.7879 3.31117 23.2659 4.04437C23.744 4.77758 23.9977 5.63434 23.996 6.50962V11.0078C23.9958 11.4741 23.8841 11.9336 23.6702 12.348L21.2389 16.8054L26.8027 20.446C27.17 20.6864 27.4714 21.0147 27.6795 21.4012C27.8876 21.7877 27.9958 22.22 27.9943 22.6589V26.0016H23.4962V28.0008H29.9935V22.6589C29.9955 21.8879 29.8048 21.1286 29.4388 20.45C29.0727 19.7714 28.5428 19.1951 27.8974 18.7733Z" fill="#5B5E77" fill-opacity="0.7"/>
<path d="M18.9011 20.7726L14.8813 18.1424L16.429 15.3049C16.8023 14.5964 16.9978 13.8078 16.9989 13.007V8.50885C16.9976 6.7847 16.3124 5.13147 15.0937 3.91183C13.8751 2.6922 12.2224 2.00577 10.4982 2.00314C6.91736 2.00314 4.00417 4.92164 4.00417 8.50885V13.007C4.00036 13.8075 4.19379 14.5966 4.56738 15.3045L6.12349 18.1573L2.12707 20.7726C1.48234 21.1936 0.952956 21.769 0.586962 22.4465C0.220968 23.124 0.0299485 23.8822 0.0312372 24.6522L0 30.0001H20.9972V24.6581C20.9992 23.8871 20.8085 23.1278 20.4425 22.4492C20.0764 21.7706 19.5465 21.1943 18.9011 20.7726ZM18.998 28.0009H2.0108L2.03017 24.6581C2.02866 24.2192 2.13687 23.7868 2.34497 23.4004C2.55307 23.0139 2.85446 22.6856 3.22174 22.4452L8.7621 18.8199L6.32241 14.3472C6.11091 13.9322 6.00153 13.4728 6.00336 13.007V8.50885C6.00336 7.31587 6.47727 6.17174 7.32083 5.32818C8.1644 4.48461 9.30853 4.0107 10.5015 4.0107C11.6945 4.0107 12.8386 4.48461 13.6822 5.32818C14.5258 6.17174 14.9997 7.31587 14.9997 8.50885V13.007C14.9995 13.4733 14.8878 13.9328 14.6739 14.3472L12.2426 18.8046L17.8065 22.4453C18.1737 22.6856 18.4751 23.014 18.6832 23.4004C18.8913 23.7869 18.9995 24.2192 18.998 24.6582V28.0009Z" fill="#5B5E77" fill-opacity="0.7"/>
</svg>
