<svg width="45" height="35" viewBox="0 0 45 35" fill="none" xmlns="http://www.w3.org/2000/svg">
<path d="M18.2812 0C17.1624 0 16.0893 0.431138 15.2981 1.19857C14.507 1.966 14.0625 3.00686 14.0625 4.09217V5.45623H4.21875C3.09987 5.45623 2.02681 5.88737 1.23564 6.6548C0.444474 7.42223 0 8.46309 0 9.5484L0 13.3241L21.4144 18.8622C22.1257 19.0459 22.8743 19.0459 23.5856 18.8622L45 13.3241V9.5484C45 8.46309 44.5555 7.42223 43.7644 6.6548C42.9732 5.88737 41.9001 5.45623 40.7812 5.45623H30.9375V4.09217C30.9375 3.00686 30.493 1.966 29.7019 1.19857C28.9107 0.431138 27.8376 0 26.7188 0H18.2812ZM18.2812 2.72811H26.7188C27.0917 2.72811 27.4494 2.87183 27.7131 3.12764C27.9768 3.38345 28.125 3.7304 28.125 4.09217V5.45623H16.875V4.09217C16.875 3.7304 17.0232 3.38345 17.2869 3.12764C17.5506 2.87183 17.9083 2.72811 18.2812 2.72811Z" fill="#5B5E77" fill-opacity="0.7"/>
<path d="M0 31.014C0 32.0711 0.444474 33.085 1.23564 33.8325C2.02681 34.58 3.09987 35 4.21875 35H40.7812C41.9001 35 42.9732 34.58 43.7644 33.8325C44.5555 33.085 45 32.0711 45 31.014V16L22.8628 21.5724C22.6251 21.6324 22.3749 21.6324 22.1372 21.5724L0 16V31.014Z" fill="#5B5E77" fill-opacity="0.7"/>
</svg>
