<svg width="20" height="20" viewBox="0 0 12 19" fill="none" xmlns="http://www.w3.org/2000/svg">
<path d="M6.29168 8.35417C3.92709 7.73958 3.16668 7.10417 3.16668 6.11458C3.16668 4.97917 4.21876 4.1875 5.97918 4.1875C7.83334 4.1875 8.52084 5.07292 8.58334 6.375H10.8854C10.8125 4.58333 9.71876 2.9375 7.54168 2.40625V0.125H4.41668V2.375C2.39584 2.8125 0.770843 4.125 0.770843 6.13542C0.770843 8.54167 2.76043 9.73958 5.66668 10.4375C8.27084 11.0625 8.79168 11.9792 8.79168 12.9479C8.79168 13.6667 8.28126 14.8125 5.97918 14.8125C3.83334 14.8125 2.98959 13.8542 2.87501 12.625H0.583344C0.708343 14.9062 2.41668 16.1875 4.41668 16.6146V18.875H7.54168V16.6354C9.57293 16.25 11.1875 15.0729 11.1875 12.9375C11.1875 9.97917 8.65626 8.96875 6.29168 8.35417Z" fill="#5B5E77" fill-opacity="0.7"/>
</svg>