<svg width="19" height="20" viewBox="0 0 19 20" fill="none" xmlns="http://www.w3.org/2000/svg">
<path d="M5.37222 4.18605C4.98916 4.18605 4.67151 3.86977 4.67151 3.48837V0.697674C4.67151 0.316279 4.98916 0 5.37222 0C5.75527 0 6.07292 0.316279 6.07292 0.697674V3.48837C6.07292 3.86977 5.75527 4.18605 5.37222 4.18605Z" fill="#5B5E77" fill-opacity="0.7"/>
<path d="M12.8465 4.18605C12.4634 4.18605 12.1458 3.86977 12.1458 3.48837V0.697674C12.1458 0.316279 12.4634 0 12.8465 0C13.2295 0 13.5472 0.316279 13.5472 0.697674V3.48837C13.5472 3.86977 13.2295 4.18605 12.8465 4.18605Z" fill="#5B5E77" fill-opacity="0.7"/>
<path d="M11.912 20.0002H6.30637C1.05573 20.0002 0 17.535 0 13.5536V7.81411C0 3.40481 1.49484 1.60946 5.33472 1.39551H12.8463H12.8837C16.7236 1.60946 18.2184 3.40481 18.2184 7.81411V13.5536C18.2184 17.535 17.1627 20.0002 11.912 20.0002ZM5.37209 2.79086C2.75612 2.93969 1.40142 3.7583 1.40142 7.81411V13.5536C1.40142 17.1164 2.08344 18.6048 6.30637 18.6048H11.912C16.135 18.6048 16.817 17.1164 16.817 13.5536V7.81411C16.817 3.7676 15.4716 2.93969 12.8276 2.79086H5.37209Z" fill="#5B5E77" fill-opacity="0.7"/>
<path d="M17.2841 15.9071H0.934228C0.551175 15.9071 0.233521 15.5908 0.233521 15.2094C0.233521 14.828 0.551175 14.5117 0.934228 14.5117H17.2841C17.6671 14.5117 17.9848 14.828 17.9848 15.2094C17.9848 15.5908 17.6671 15.9071 17.2841 15.9071Z" fill="#5B5E77" fill-opacity="0.7"/>
<path d="M9.10913 6.51147C7.95997 6.51147 6.98832 7.13473 6.98832 8.34403C6.98832 8.92078 7.25926 9.35799 7.67034 9.63706C7.10043 9.97194 6.77344 10.5115 6.77344 11.144C6.77344 12.2975 7.661 13.0138 9.10913 13.0138C10.5479 13.0138 11.4448 12.2975 11.4448 11.144C11.4448 10.5115 11.1178 9.96264 10.5386 9.63706C10.959 9.34868 11.2206 8.92078 11.2206 8.34403C11.2206 7.13473 10.2583 6.51147 9.10913 6.51147ZM9.10913 9.15334C8.62331 9.15334 8.26828 8.86496 8.26828 8.40915C8.26828 7.94403 8.62331 7.67427 9.10913 7.67427C9.59495 7.67427 9.94998 7.94403 9.94998 8.40915C9.94998 8.86496 9.59495 9.15334 9.10913 9.15334ZM9.10913 11.8603C8.49251 11.8603 8.04405 11.5533 8.04405 10.9952C8.04405 10.4371 8.49251 10.1394 9.10913 10.1394C9.72575 10.1394 10.1742 10.4464 10.1742 10.9952C10.1742 11.5533 9.72575 11.8603 9.10913 11.8603Z" fill="#5B5E77" fill-opacity="0.7"/>
</svg>
