<svg width="20" height="20" viewBox="0 0 20 20" fill="none" xmlns="http://www.w3.org/2000/svg">
<path d="M0.0625 4.44375C0.188523 3.89155 0.498319 3.39852 0.941152 3.04539C1.38398 2.69225 1.93361 2.49996 2.5 2.5H17.5C18.0664 2.49996 18.616 2.69225 19.0588 3.04539C19.5017 3.39852 19.8115 3.89155 19.9375 4.44375L10 10.5175L0.0625 4.44375ZM0 5.87125V14.7512L7.25375 10.3038L0 5.87125ZM8.45125 11.0375L0.23875 16.0713C0.441658 16.4991 0.761908 16.8605 1.16223 17.1135C1.56255 17.3664 2.02647 17.5005 2.5 17.5H17.5C17.9735 17.5001 18.4372 17.3658 18.8373 17.1126C19.2374 16.8595 19.5574 16.4979 19.76 16.07L11.5475 11.0363L10 11.9825L8.45125 11.0375ZM12.7462 10.305L20 14.7512V5.87125L12.7462 10.3038V10.305Z" fill="#5B5E77" fill-opacity="0.5"/>
</svg>
