<svg width="20" height="20" viewBox="0 0 20 20" fill="none" xmlns="http://www.w3.org/2000/svg">
<path d="M0.310151 19.6863L0.313824 19.69C0.411236 19.7881 0.527083 19.866 0.654706 19.9192C0.782329 19.9724 0.91921 19.9999 1.05748 20C1.17382 19.9999 1.28936 19.9807 1.39949 19.9432L7.39559 17.9092L18.9017 6.40307C19.6051 5.69961 20.0002 4.74553 20.0002 3.75073C20.0002 2.75593 19.6049 1.8019 18.9015 1.0985C18.198 0.395097 17.2439 -4.35486e-05 16.2491 3.59984e-09C15.2543 4.35558e-05 14.3003 0.395268 13.5969 1.09873L2.09079 12.6048L0.0569317 18.6008C-0.00713483 18.7872 -0.017361 18.988 0.0274257 19.18C0.0722124 19.372 0.170199 19.5475 0.310151 19.6863ZM14.5524 2.05414C15.003 1.60695 15.6125 1.35655 16.2473 1.35777C16.8822 1.35899 17.4907 1.61173 17.9396 2.06064C18.3885 2.50956 18.6412 3.11806 18.6424 3.75291C18.6436 4.38776 18.3932 4.99722 17.946 5.44783L16.4329 6.96089L13.0392 3.5672L14.5524 2.05414ZM3.26927 13.3372L12.0838 4.52261L15.4775 7.9163L6.66292 16.7309L1.52701 18.4731L3.26927 13.3372Z" fill="#FAA61A"/>
</svg>
