<svg width="30" height="30" viewBox="0 0 30 30" fill="none" xmlns="http://www.w3.org/2000/svg">
<path d="M23.4375 0H6.5625C5.81658 0 5.10119 0.296328 4.57375 0.823774C4.0463 1.35122 3.75 2.06658 3.75 2.8125V30H26.25V2.8125C26.25 2.06658 25.9537 1.35122 25.4263 0.823774C24.8988 0.296328 24.1834 0 23.4375 0ZM13.125 28.125V22.5H16.875V28.125H13.125ZM24.375 28.125H18.75V21.5625C18.75 21.3139 18.6512 21.0754 18.4754 20.8996C18.2996 20.7238 18.0611 20.625 17.8125 20.625H12.1875C11.9389 20.625 11.7004 20.7238 11.5246 20.8996C11.3488 21.0754 11.25 21.3139 11.25 21.5625V28.125H5.625V2.8125C5.625 2.56386 5.72379 2.32542 5.8996 2.1496C6.07542 1.97379 6.31386 1.875 6.5625 1.875H23.4375C23.6861 1.875 23.9246 1.97379 24.1004 2.1496C24.2762 2.32542 24.375 2.56386 24.375 2.8125V28.125ZM9.375 5.625H13.125V9.375H9.375V5.625ZM16.875 5.625H20.625V9.375H16.875V5.625ZM9.375 13.125H13.125V16.875H9.375V13.125ZM16.875 13.125H20.625V16.875H16.875V13.125Z" fill="#5B5E77" fill-opacity="0.7"/>
</svg>
