<svg width="30" height="30" viewBox="0 0 30 30" fill="none" xmlns="http://www.w3.org/2000/svg">
<path d="M30 15C30 23.2843 23.2843 30 15 30C6.71573 30 0 23.2843 0 15C0 6.71573 6.71573 0 15 0C23.2843 0 30 6.71573 30 15Z" fill="#5B5E77" fill-opacity="0.7"/>
<circle cx="15" cy="15" r="14" stroke="#5B5E77" stroke-width="2"/>
<path opacity="0.7" d="M13.9666 14.0368L12.8325 16.9665L12.6057 17.5543C12.4494 17.9568 12.5952 18.412 12.9563 18.6532L13.2155 18.8271C12.9644 18.6098 12.8718 18.2587 12.9933 17.9442L13.1889 17.4411L14.1622 14.9276L14.2663 14.66L14.5093 14.0322C14.6355 13.7063 14.5059 13.4067 14.2791 13.2363L14.0893 13.7258L13.9666 14.0368Z" fill="#5B5E77" fill-opacity="0.7"/>
<path opacity="0.4" d="M16.8015 21.2362L16.2379 20.8588L15.9984 20.6987L13.744 19.1904L13.2927 18.8885C13.2649 18.8702 13.2383 18.8496 13.214 18.829L12.9548 18.6552C12.5937 18.4139 12.4491 17.9588 12.6041 17.5563L12.8309 16.9685L13.9651 14.0388L14.0854 13.7266L14.2752 13.2371C14.0195 13.045 13.6387 13.0164 13.3598 13.2989C13.354 13.3046 13.3482 13.3103 13.3425 13.3172L7.7124 19.3836C7.29348 19.8353 7.52609 20.5649 8.13133 20.6976L16.2622 22.4815C16.2703 22.4837 16.2784 22.4849 16.2865 22.486C17.0283 22.6256 17.4253 21.6524 16.8015 21.2362Z" fill="#5B5E77" fill-opacity="0.7"/>
<path opacity="0.9" d="M16.8023 12.0008L16.2757 11.6474L13.6511 9.88296L13.371 9.69542L12.9324 9.40039C12.8445 9.66798 12.9116 9.98702 13.2044 10.1837L13.7668 10.5622L14.0064 10.7235L16.2584 12.2364L16.7097 12.5394C16.9909 12.7281 17.1194 13.0688 17.0384 13.389L17.1506 13.1009C17.3069 12.6983 17.1622 12.2421 16.8023 12.0008Z" fill="#5B5E77" fill-opacity="0.7"/>
<path opacity="0.7" d="M21.8703 10.7385L13.7429 8.93855C13.7348 8.93626 13.7267 8.93512 13.7186 8.93398C13.3263 8.8585 13.0312 9.0975 12.9316 9.39939L13.3702 9.69442L13.6503 9.88196L16.275 11.6464L16.8015 11.9998C17.1614 12.2422 17.3061 12.6973 17.1498 13.0987L17.0376 13.3869C17.0295 13.4178 17.0191 13.4498 17.0075 13.4807L16.8119 13.9838L15.834 16.495L15.7299 16.7626L15.4857 17.3904C15.2161 18.0845 16.1037 18.6586 16.6291 18.1268C16.6349 18.1211 16.6406 18.1154 16.6464 18.1085L22.2881 12.0535C22.7058 11.6018 22.4744 10.8723 21.8703 10.7385Z" fill="#5B5E77" fill-opacity="0.7"/>
<mask id="mask0_0_1" style="mask-type:luminance" maskUnits="userSpaceOnUse" x="8" y="7" width="14" height="13">
<path d="M16.4773 18.55C16.2887 18.7364 16.0492 18.8313 15.8073 18.8313C15.599 18.8313 15.3884 18.7615 15.2055 18.6197C14.8583 18.351 14.7391 17.9164 14.9023 17.5116L16.519 13.5035C16.6081 13.2817 16.5479 13.0255 16.3686 12.8655C16.3512 12.8494 16.3327 12.8357 16.3119 12.822L12.7313 10.3531C12.3436 10.0855 12.2094 9.61668 12.3969 9.18557C12.582 8.76017 13.0125 8.53718 13.4696 8.62981C13.4789 8.6321 13.4905 8.63438 13.5009 8.63667L21.0416 10.4V10.1782C21.0416 8.69842 19.8276 7.5 18.3313 7.5H11.2708C9.77335 7.5 8.56055 8.69957 8.56055 10.1782V17.1548C8.56055 17.5013 8.62651 17.8318 8.74802 18.136L13.0218 13.0736C13.0299 13.0644 13.0368 13.0564 13.0438 13.0484C13.3516 12.7042 13.8318 12.6276 14.238 12.8586C14.65 13.0919 14.8271 13.547 14.679 13.9907L13.3122 18.088C13.3041 18.1108 13.2984 18.1337 13.2937 18.1566C13.2463 18.391 13.3539 18.6323 13.5599 18.7569L15.3479 19.8353H18.3301C19.8276 19.8353 21.0404 18.6357 21.0404 17.1571V13.7688L16.4993 18.5271C16.4935 18.5339 16.4854 18.542 16.4773 18.55Z" fill="white"/>
</mask>
<g mask="url(#mask0_0_1)">
<rect x="4.08514" y="3.05859" width="21.4416" height="21.2148" fill="#C4C4C4"/>
</g>
</svg>
