<svg width="31" height="30" viewBox="0 0 31 30" fill="none" xmlns="http://www.w3.org/2000/svg">
<path d="M28.4645 5.99193H22.0031V0H7.99716V5.99193H1.55026C1.13926 5.99246 0.745241 6.15596 0.454624 6.44659C0.164007 6.73722 0.000513412 7.13125 0 7.54225V28.4497C0.000529971 28.8607 0.164031 29.2547 0.454646 29.5454C0.745262 29.836 1.13927 29.9995 1.55026 30H28.4645C28.8755 29.9995 29.2695 29.836 29.5601 29.5454C29.8507 29.2547 30.0142 28.8607 30.0148 28.4497V7.54225C30.0143 7.13125 29.8508 6.73722 29.5601 6.44659C29.2695 6.15596 28.8755 5.99246 28.4645 5.99193ZM10.0001 2.00292H20.0002V5.99193H10.0001V2.00292ZM27.9157 8.09111V13.1163L24.5873 16.4447H16.0569V13.5197H13.9579V16.4447H5.42748L2.09906 13.1163V8.09111H27.9157ZM2.09906 27.9009V16.0848L4.55802 18.5439H13.9579V21.5001H16.0569V18.5439H25.4567L27.9157 16.0848V27.9009H2.09906Z" fill="#5B5E77" fill-opacity="0.7"/>
</svg>
